<svg width="45" height="44" viewBox="0 0 45 44" fill="none" xmlns="http://www.w3.org/2000/svg">
<rect x="0.216797" width="44" height="44" rx="22" fill="white" fill-opacity="0.15"/>
<mask id="mask0_90_5701" style="mask-type:alpha" maskUnits="userSpaceOnUse" x="10" y="10" width="25" height="24">
<rect x="10.2168" y="10" width="24" height="24" fill="#D9D9D9"/>
</mask>
<g mask="url(#mask0_90_5701)">
<path d="M14.7674 29C13.9174 29 13.2591 28.7042 12.7924 28.1125C12.3258 27.5208 12.1508 26.8 12.2674 25.95L13.3174 18.45C13.4674 17.45 13.9133 16.625 14.6549 15.975C15.3966 15.325 16.2674 15 17.2674 15H27.1674C28.1674 15 29.0383 15.325 29.7799 15.975C30.5216 16.625 30.9674 17.45 31.1174 18.45L32.1674 25.95C32.2841 26.8 32.1091 27.5208 31.6424 28.1125C31.1758 28.7042 30.5174 29 29.6674 29C29.3174 29 28.9924 28.9375 28.6924 28.8125C28.3924 28.6875 28.1174 28.5 27.8674 28.25L25.6174 26H18.8174L16.5674 28.25C16.3174 28.5 16.0424 28.6875 15.7424 28.8125C15.4424 28.9375 15.1174 29 14.7674 29ZM27.2174 23C27.5008 23 27.7383 22.9042 27.9299 22.7125C28.1216 22.5208 28.2174 22.2833 28.2174 22C28.2174 21.7167 28.1216 21.4792 27.9299 21.2875C27.7383 21.0958 27.5008 21 27.2174 21C26.9341 21 26.6966 21.0958 26.5049 21.2875C26.3133 21.4792 26.2174 21.7167 26.2174 22C26.2174 22.2833 26.3133 22.5208 26.5049 22.7125C26.6966 22.9042 26.9341 23 27.2174 23ZM25.2174 20C25.5008 20 25.7383 19.9042 25.9299 19.7125C26.1216 19.5208 26.2174 19.2833 26.2174 19C26.2174 18.7167 26.1216 18.4792 25.9299 18.2875C25.7383 18.0958 25.5008 18 25.2174 18C24.9341 18 24.6966 18.0958 24.5049 18.2875C24.3133 18.4792 24.2174 18.7167 24.2174 19C24.2174 19.2833 24.3133 19.5208 24.5049 19.7125C24.6966 19.9042 24.9341 20 25.2174 20ZM17.9674 23H19.4674V21.25H21.2174V19.75H19.4674V18H17.9674V19.75H16.2174V21.25H17.9674V23Z" fill="white"/>
</g>
</svg>
