<svg width="45" height="44" viewBox="0 0 45 44" fill="none" xmlns="http://www.w3.org/2000/svg">
<rect x="0.972656" width="44" height="44" rx="22" fill="#FF670A" fill-opacity="0.15"/>
<mask id="mask0_115_6043" style="mask-type:alpha" maskUnits="userSpaceOnUse" x="10" y="10" width="25" height="24">
<rect x="10.9727" y="10" width="24" height="24" fill="#D9D9D9"/>
</mask>
<g mask="url(#mask0_115_6043)">
<path d="M17.9727 12H27.9727V19.85C27.9727 20.2333 27.8893 20.575 27.7227 20.875C27.556 21.175 27.3227 21.4167 27.0227 21.6L23.4727 23.7L24.1727 26H27.9727L24.8727 28.2L26.0727 32L22.9727 29.65L19.8727 32L21.0727 28.2L17.9727 26H21.7727L22.4727 23.7L18.9227 21.6C18.6227 21.4167 18.3893 21.175 18.2227 20.875C18.056 20.575 17.9727 20.2333 17.9727 19.85V12ZM19.9727 14V19.85L21.9727 21.05V14H19.9727ZM25.9727 14H23.9727V21.05L25.9727 19.85V14Z" fill="#FF8932"/>
</g>
</svg>
