<svg width="45" height="44" viewBox="0 0 45 44" fill="none" xmlns="http://www.w3.org/2000/svg">
<rect x="0.972656" width="44" height="44" rx="22" fill="white" fill-opacity="0.15"/>
<mask id="mask0_84_13529" style="mask-type:alpha" maskUnits="userSpaceOnUse" x="10" y="10" width="25" height="24">
<rect x="10.9727" y="10" width="24" height="24" fill="#D9D9D9"/>
</mask>
<g mask="url(#mask0_84_13529)">
<path d="M22.6727 28C21.0727 27.9167 19.7227 27.3 18.6227 26.15C17.5227 25 16.9727 23.6167 16.9727 22C16.9727 20.3333 17.556 18.9167 18.7227 17.75C19.8893 16.5833 21.306 16 22.9727 16C24.5893 16 25.9727 16.55 27.1227 17.65C28.2727 18.75 28.8893 20.1 28.9727 21.7L26.8727 21.075C26.656 20.175 26.1893 19.4375 25.4727 18.8625C24.756 18.2875 23.9227 18 22.9727 18C21.8727 18 20.931 18.3917 20.1477 19.175C19.3643 19.9583 18.9727 20.9 18.9727 22C18.9727 22.95 19.2602 23.7833 19.8352 24.5C20.4102 25.2167 21.1477 25.6833 22.0477 25.9L22.6727 28ZM31.4977 32.5L27.2227 28.225L25.9727 32L22.9727 22L32.9727 25L29.1977 26.25L33.4727 30.525L31.4977 32.5Z" fill="white"/>
</g>
</svg>
