<svg width="45" height="44" viewBox="0 0 45 44" fill="none" xmlns="http://www.w3.org/2000/svg">
<rect x="0.640625" width="44" height="44" rx="22" fill="#9455FD" fill-opacity="0.15"/>
<mask id="mask0_115_6053" style="mask-type:alpha" maskUnits="userSpaceOnUse" x="10" y="10" width="25" height="24">
<rect x="10.6406" y="10" width="24" height="24" fill="#D9D9D9"/>
</mask>
<g mask="url(#mask0_115_6053)">
<path d="M21.0906 25.5C21.4906 25.9 22.0073 26.0958 22.6406 26.0875C23.274 26.0792 23.7406 25.85 24.0406 25.4L29.6406 17L21.2406 22.6C20.7906 22.9 20.5531 23.3583 20.5281 23.975C20.5031 24.5917 20.6906 25.1 21.0906 25.5ZM22.6406 14C23.624 14 24.5698 14.1375 25.4781 14.4125C26.3865 14.6875 27.2406 15.1 28.0406 15.65L26.1406 16.85C25.5906 16.5667 25.0198 16.3542 24.4281 16.2125C23.8365 16.0708 23.2406 16 22.6406 16C20.424 16 18.5365 16.7792 16.9781 18.3375C15.4198 19.8958 14.6406 21.7833 14.6406 24C14.6406 24.7 14.7365 25.3917 14.9281 26.075C15.1198 26.7583 15.3906 27.4 15.7406 28H29.5406C29.924 27.3667 30.2031 26.7083 30.3781 26.025C30.5531 25.3417 30.6406 24.6333 30.6406 23.9C30.6406 23.3 30.5698 22.7167 30.4281 22.15C30.2865 21.5833 30.074 21.0333 29.7906 20.5L30.9906 18.6C31.4906 19.3833 31.8865 20.2167 32.1781 21.1C32.4698 21.9833 32.624 22.9 32.6406 23.85C32.6573 24.8 32.549 25.7083 32.3156 26.575C32.0823 27.4417 31.7406 28.2667 31.2906 29.05C31.1073 29.35 30.8573 29.5833 30.5406 29.75C30.224 29.9167 29.8906 30 29.5406 30H15.7406C15.3906 30 15.0573 29.9167 14.7406 29.75C14.424 29.5833 14.174 29.35 13.9906 29.05C13.5573 28.3 13.224 27.5042 12.9906 26.6625C12.7573 25.8208 12.6406 24.9333 12.6406 24C12.6406 22.6167 12.9031 21.3208 13.4281 20.1125C13.9531 18.9042 14.6698 17.8458 15.5781 16.9375C16.4865 16.0292 17.549 15.3125 18.7656 14.7875C19.9823 14.2625 21.274 14 22.6406 14Z" fill="#9E70FF"/>
</g>
</svg>
